<svg id="Layer_1" data-name="Layer 1" xmlns="http://www.w3.org/2000/svg" viewBox="0 0 288.84 76.94"><title>Artboard 1</title><path d="M100.07,76.94V18.81H81.3V1.94h60.49V18.81H122.56V76.94Z"/><path d="M166.18,76.94V18.81H147.41V1.94h60.49V18.81H188.67V76.94Z"/><path d="M77.33,38.67A38.67,38.67,0,1,1,38.67,0,38.67,38.67,0,0,1,77.33,38.67ZM38.67,17.33A21.33,21.33,0,1,0,60,38.67,21.33,21.33,0,0,0,38.67,17.33Z"/><path d="M288.84,38.67A38.67,38.67,0,1,1,250.18,0,38.67,38.67,0,0,1,288.84,38.67ZM250.18,17.33a21.33,21.33,0,1,0,21.33,21.33A21.33,21.33,0,0,0,250.18,17.33Z"/></svg>